<svg xmlns="http://www.w3.org/2000/svg" width="64" height="64" viewBox="0 0 64 64" fill="none" role="img" aria-label="Dr. Asim Prakash Dental Clinic">
  <defs>
    <linearGradient id="fv" x1="6" y1="6" x2="58" y2="58" gradientUnits="userSpaceOnUse">
      <stop offset="0" stop-color="#3B63A8"/>
      <stop offset="1" stop-color="#091F5B"/>
    </linearGradient>
  </defs>
  <rect width="64" height="64" rx="15" fill="url(#fv)"/>
  <path d="M32 13c7.5 0 13 5 13 12.1 0 5.4-1.8 8.7-3.7 14.9-1.5 4.9-2.4 10-5.4 10-2.5 0-2.7-4.3-4.1-4.3s-1.6 4.3-4.1 4.3c-3 0-3.9-5.1-5.4-10C20.8 33.8 19 30.5 19 25.1 19 18 24.5 13 32 13Z" fill="#ffffff"/>
  <circle cx="39.5" cy="24" r="3" fill="#6F96D1"/>
</svg>
